<!DOCTYPE svg PUBLIC "-//W3C//DTD SVG 1.1//EN" "http://www.w3.org/Graphics/SVG/1.1/DTD/svg11.dtd">
<!-- Uploaded to: SVG Repo, www.svgrepo.com, Transformed by: SVG Repo Mixer Tools -->
<svg width="800px" height="800px" viewBox="0 0 24 24" fill="none" xmlns="http://www.w3.org/2000/svg">
<g id="SVGRepo_bgCarrier" stroke-width="0"/>
<g id="SVGRepo_tracerCarrier" stroke-linecap="round" stroke-linejoin="round"/>
<g id="SVGRepo_iconCarrier"> <path fill-rule="evenodd" clip-rule="evenodd" d="M16 4C16 5.86658 14.7215 7.43455 12.9924 7.87594C12.9974 7.91659 13 7.95799 13 8V9.7973C13.0054 9.79921 13.0108 9.80113 13.0162 9.80307L20.1604 12.375C21.4569 12.8418 22.0701 14.0289 22 15.177V18.5585C22 19.8498 21.1737 20.9962 19.9487 21.4045L12.9487 23.7379C12.3329 23.9431 11.6671 23.9431 11.0513 23.7379L4.05132 21.4045C2.82629 20.9962 2 19.8498 2 18.5585V15.1769C1.92995 14.0287 2.54315 12.8417 3.83959 12.375L10.9838 9.80307C10.9892 9.80113 10.9946 9.79921 11 9.79731V8C11 7.95799 11.0026 7.91659 11.0076 7.87594C9.27853 7.43455 8 5.86658 8 4C8 1.79086 9.79086 0 12 0C14.2091 0 16 1.79086 16 4ZM11 11.9229L4.51703 14.2568C4.16878 14.3821 3.99464 14.6911 3.99461 15H4C4 15.3341 4.19728 15.6283 4.51702 15.7434L11.6613 18.3153C11.8802 18.3941 12.1198 18.3941 12.3387 18.3153L19.483 15.7434C19.8027 15.6283 20 15.3341 20 15H20.0054C20.0054 14.6911 19.8312 14.3821 19.483 14.2568L13 11.9229V15C13 15.5523 12.5523 16 12 16C11.4477 16 11 15.5523 11 15V11.9229ZM9.98005 4C9.98005 5.11559 10.8844 6.01995 12 6.01995C13.1156 6.01995 14.0199 5.11559 14.0199 4C14.0199 2.88441 13.1156 1.98005 12 1.98005C10.8844 1.98005 9.98005 2.88441 9.98005 4ZM4 18.5585V17.6829L10.9838 20.1971C11.6407 20.4335 12.3594 20.4335 13.0162 20.1971L20 17.6829V18.5585C20 18.9889 19.7246 19.3711 19.3162 19.5072L12.3162 21.8405C12.111 21.9089 11.889 21.9089 11.6838 21.8405L4.68377 19.5072C4.27543 19.3711 4 18.9889 4 18.5585Z" fill="#ffffff"/> </g>
</svg>