<!DOCTYPE svg PUBLIC "-//W3C//DTD SVG 1.1//EN" "http://www.w3.org/Graphics/SVG/1.1/DTD/svg11.dtd">
<!-- Uploaded to: SVG Repo, www.svgrepo.com, Transformed by: SVG Repo Mixer Tools -->
<svg width="800px" height="800px" viewBox="0 0 24 24" fill="none" xmlns="http://www.w3.org/2000/svg">
<g id="SVGRepo_bgCarrier" stroke-width="0"/>
<g id="SVGRepo_tracerCarrier" stroke-linecap="round" stroke-linejoin="round"/>
<g id="SVGRepo_iconCarrier"> <path d="M4 19H20M11.2929 5.70711L8.70711 8.2929C8.31658 8.68342 7.68342 8.68342 7.29289 8.2929L5.70711 6.70711C5.07714 6.07714 4 6.52331 4 7.41422V15C4 15.5523 4.44772 16 5 16H19C19.5523 16 20 15.5523 20 15V7.41421C20 6.52331 18.9229 6.07714 18.2929 6.70711L16.7071 8.2929C16.3166 8.68342 15.6834 8.68342 15.2929 8.2929L12.7071 5.70711C12.3166 5.31658 11.6834 5.31658 11.2929 5.70711Z" stroke="#ce5c00" stroke-width="1.5" stroke-linecap="round" stroke-linejoin="round"/> </g>
</svg>